PathFileType	4	(X/Y/Z)	G:\GRF\jawan data\CompiledGRF\03. Mohit Kumar\0231~ac~Walking 01_markers.trc
DataRate	CameraRate	NumFrames	NumMarkers	Units	OrigDataRate	OrigDataStartFrame	OrigNumFrames
100.000000	100.000000	8	18	mm	100.000000	603	805
Frame#	Time	c7			r should			l should			sacrum			r asis			r bar 1			r knee 1			r bar 2			r mall			r heel			r met			l asis			l bar 1			l knee 1			l bar 2			l mall			l heel			l met			
		X1	Y1	Z1	X2	Y2	Z2	X3	Y3	Z3	X4	Y4	Z4	X5	Y5	Z5	X6	Y6	Z6	X7	Y7	Z7	X8	Y8	Z8	X9	Y9	Z9	X10	Y10	Z10	X11	Y11	Z11	X12	Y12	Z12	X13	Y13	Z13	X14	Y14	Z14	X15	Y15	Z15	X16	Y16	Z16	X17	Y17	Z17	X18	Y18	Z18	

604	6.03	2123.551025390625	1500.442138671875	293.7850036621094	2196.03271484375	1436.178344726563	464.4920654296875	2208.185546875	1456.501098632813	128.6842498779297	2078.988037109375	1028.43310546875	284.3351440429688	2258.352294921875	1010.580322265625	404.7091674804688	2292.701171875	603.7899169921875	498.3490600585938	2343.851806640625	529.744384765625	454.0042724609375	2377.9560546875	209.17626953125	492.0573120117188	2437.57373046875	82.33939361572266	441.8131713867188	nan	nan	nan	2585.084716796875	91.47111511230469	442.1026611328125	2254.164306640625	1006.578674316406	154.4253387451172	2161.242431640625	581.6163940429688	105.6627807617188	2158.4052734375	493.4507446289063	167.9889068603516	2043.724487304688	236.0400238037109	119.2957611083984	1979.14208984375	76.94430541992188	189.7136840820313	nan	nan	nan	2117.829833984375	33.48696136474609	226.1686553955078	
605	6.04	2131.7734375	1499.908081054688	295.8556518554688	2204.830078125	1435.228515625	466.3123779296875	2216.177490234375	1456.089599609375	130.3538360595703	2087.632080078125	1027.747192382813	285.9858703613281	2267.283935546875	1009.989868164063	406.0912170410156	2301.971435546875	603.1256713867188	498.6393127441406	2352.71875	528.8700561523438	454.051513671875	2387.098388671875	208.1165161132813	491.9812316894531	2445.39697265625	81.02750396728516	440.7857360839844	nan	nan	nan	2593.14404296875	89.89933013916016	440.3296203613281	2262.379638671875	1006.034606933594	155.648681640625	2168.026123046875	581.3795776367188	106.6072158813477	2164.910888671875	492.9556884765625	168.6117858886719	2046.417236328125	236.9838104248047	119.5363922119141	1980.052368164063	78.68296051025391	189.6980590820313	nan	nan	nan	2117.91650390625	33.4774284362793	226.1465759277344	
606	6.05	2140.076171875	1499.1494140625	298.0912475585938	2213.243896484375	1434.406616210938	468.1401977539063	2224.1103515625	1455.710327148438	132.3065185546875	2095.967529296875	1027.080932617188	287.605224609375	2276.349365234375	1009.47998046875	407.4846496582031	2311.669677734375	602.5533447265625	499.0331420898438	2361.787353515625	528.0001220703125	454.1011047363281	2394.802734375	206.7035980224609	491.7014770507813	2451.540771484375	79.53437042236328	439.9138793945313	2412.27685546875	27.94905281066895	386.902099609375	2599.233154296875	87.33205413818359	438.8364868164063	2270.781982421875	1005.536437988281	156.8918609619141	2174.9228515625	581.1991577148438	107.5325622558594	2171.70751953125	492.5059204101563	169.2011260986328	2049.5341796875	238.1506195068359	119.6727600097656	1981.033569335938	80.51816558837891	189.6730804443359	nan	nan	nan	2117.953125	33.43423843383789	226.0977783203125	
607	6.06	2148.169189453125	1498.312255859375	300.1977233886719	2221.740234375	1433.75537109375	470.1487426757813	2231.821533203125	1455.4345703125	134.21044921875	2105.712890625	1026.26611328125	289.3511657714844	2285.66064453125	1009.099243164063	408.9158935546875	2321.7314453125	602.010009765625	499.5342102050781	2371.05615234375	527.1642456054688	454.1611633300781	2401.317626953125	205.2772369384766	491.2811584472656	2456.082275390625	77.84065246582031	438.9751892089844	nan	nan	nan	2603.434814453125	83.83946990966797	437.4230651855469	2279.471923828125	1005.111083984375	158.2208404541016	2182.146484375	581.1033325195313	108.4126663208008	2178.719482421875	491.9937438964844	169.7501525878906	2052.869873046875	239.3405303955078	119.824333190918	1982.16748046875	82.52956390380859	189.5518341064453	nan	nan	nan	2118.0537109375	33.41247940063477	226.0176849365234	
608	6.07	2156.951904296875	1497.713012695313	302.439453125	2230.316650390625	1433.234252929688	472.2088928222656	2239.826904296875	1455.325317382813	136.2520294189453	2115.2314453125	1025.55322265625	291.1429443359375	2295.20166015625	1008.73193359375	410.3524475097656	2332.017333984375	601.4542236328125	500.0567932128906	2380.52587890625	526.3695068359375	454.2606811523438	2406.666015625	203.8371429443359	490.8323974609375	2458.815673828125	75.59527587890625	437.8544921875	2417.566650390625	25.00992584228516	385.1765441894531	2606.240478515625	79.75372314453125	435.9349365234375	2288.318359375	1004.675720214844	159.5937805175781	2189.46826171875	580.8768310546875	109.1600723266602	2186.112060546875	491.4656372070313	170.2458953857422	2056.44873046875	240.5375213623047	119.8931503295898	1983.481689453125	84.71503448486328	189.3624572753906	nan	nan	nan	2118.126953125	33.31642150878906	225.9310607910156	
609	6.08	2165.514892578125	1496.952758789063	304.7317504882813	2238.907470703125	1432.8720703125	474.4056396484375	2247.98046875	1455.273681640625	138.4691772460938	2124.746337890625	1025.189086914063	293.0260620117188	2305.013916015625	1008.387573242188	411.7098693847656	2342.48095703125	600.9053955078125	500.4983520507813	2389.997314453125	525.5003051757813	454.3768615722656	2410.90380859375	202.32958984375	490.3721313476563	2460.236083984375	73.20577239990234	436.9221496582031	nan	nan	nan	2607.650390625	75.06683349609375	434.1896667480469	2297.34033203125	1004.255554199219	160.9679718017578	2197.037841796875	580.6907348632813	109.9380035400391	2193.794677734375	490.9243469238281	170.6442260742188	2060.638671875	242.0589752197266	119.8918685913086	1985.010009765625	87.13384246826172	189.1451416015625	nan	nan	nan	2118.306640625	33.32612228393555	225.8142700195313	
610	6.09	2173.24267578125	1496.257080078125	307.2032775878906	2247.410400390625	1432.568969726563	476.6775817871094	2256.04736328125	1455.413452148438	140.6688690185547	2135.381591796875	1024.787475585938	295.05078125	2315.175048828125	1008.015991210938	413.0724792480469	2353.1123046875	600.2245483398438	500.9102783203125	2399.48193359375	524.5901489257813	454.3451232910156	2413.960693359375	200.6588287353516	489.9899291992188	2460.669921875	70.79364776611328	436.2118225097656	nan	nan	nan	2607.73876953125	70.02530670166016	432.6375732421875	2306.486083984375	1003.816223144531	162.3940887451172	2205.152099609375	580.638916015625	110.8081130981445	2201.9775390625	490.39697265625	170.9560699462891	2064.9697265625	243.5236206054688	119.7649841308594	1986.570434570313	89.62994384765625	188.854248046875	nan	nan	nan	2118.4716796875	33.29766464233398	225.7200012207031	
611	6.100000000000001	2180.052001953125	1495.629150390625	309.6755065917969	2255.83935546875	1432.271728515625	479.0491638183594	2263.643798828125	1455.538940429688	143.0025177001953	2145.023193359375	1024.486328125	297.2922973632813	2325.6845703125	1007.604248046875	414.3844909667969	2363.341552734375	599.0536499023438	501.3860473632813	2409.09423828125	523.7171020507813	454.1041870117188	2416.311279296875	198.9197540283203	489.5807189941406	2460.1669921875	68.24848175048828	435.6441650390625	2419.99951171875	16.49282646179199	385.4463195800781	2607.050048828125	64.84852600097656	431.3132629394531	2315.860595703125	1003.362426757813	163.8043365478516	2213.73095703125	580.5611572265625	111.6637878417969	2210.672607421875	489.8162231445313	171.1888732910156	2069.57421875	245.1050415039063	119.6896362304688	1988.47509765625	92.35352325439453	188.5732421875	nan	nan	nan	2118.541748046875	33.17945861816406	225.6167602539063	
